<?xml version="1.0" standalone="yes"?>
<svg xmlns="http://www.w3.org/2000/svg" width="512" height="512">
<path style="fill:#ffffff; stroke:none;" d="M0 0L0 512L143 512L143 511C120.154 504.403 93.3023 471.322 112.213 449C126.66 431.946 144.194 416.806 160 401L255 306L291 270C294.163 266.837 302.793 260.883 302.793 256C302.793 251.366 294.985 245.985 292 243L259 210L158 109C142.604 93.6042 120.743 77.6734 109.479 59C98.7637 41.2357 111.926 27.0741 124 15C129.782 9.21848 134.93 3.33014 143 1C131.782 -3.70721 112.206 0 100 0L0 0z"/>
<path style="fill:#010101; stroke:none;" d="M143 0.529327C134.534 2.47266 128.876 9.12357 123 15C110.39 27.6099 98.3566 43.1159 110.108 61C122.065 79.1977 142.615 94.6146 158 110L256 208L292 244C294.769 246.769 302.984 252.465 301.793 257C300.381 262.377 291.832 268.168 288 272L252 308L155 405C140.691 419.309 119.535 434.477 109.363 452C93.9246 478.599 127.403 513.263 154 511.96C164.44 511.448 171.083 503.917 178 497L212 463L358 317L390 285C399.399 275.601 408.765 266.489 406.7 252C404.073 233.57 383.354 219.354 371 207L276 112L189 25C176.184 12.1844 163.32 -4.13513 143 0.529327z"/>
<path style="fill:#ffffff; stroke:none;" d="M158 0L158 1C168.415 4.00717 175.582 12.5821 183 20L218 55L353 190L390 227C397.793 234.796 406.526 243.194 406.87 255C407.228 267.263 399.019 274.981 391 283L354 320L217 457L181 493C174.093 499.907 167.698 508.2 158 511L158 512L512 512L512 0L158 0z"/>
</svg>
